<mxfile host="app.diagrams.net" modified="2022-09-15T00:48:33.554Z" agent="5.0 (Macintosh; Intel Mac OS X 10_15_7) AppleWebKit/537.36 (KHTML, like Gecko) Chrome/99.0.4844.74 Safari/537.36" etag="US4VjYguHR85dn4nBtsg" version="20.2.6" type="github">
  <diagram id="HWQkRQDPZLScs4eT8ZIz" name="第 1 页">
    <mxGraphModel dx="786" dy="405" grid="1" gridSize="10" guides="1" tooltips="1" connect="1" arrows="1" fold="1" page="1" pageScale="1" pageWidth="827" pageHeight="1169" math="0" shadow="0">
      <root>
        <mxCell id="0" />
        <mxCell id="1" parent="0" />
        <mxCell id="-SfgJxCNq3ycuIGkJws--3" style="edgeStyle=orthogonalEdgeStyle;rounded=0;orthogonalLoop=1;jettySize=auto;html=1;exitX=0.5;exitY=1;exitDx=0;exitDy=0;entryX=0.5;entryY=0;entryDx=0;entryDy=0;" edge="1" parent="1" source="-SfgJxCNq3ycuIGkJws--1" target="-SfgJxCNq3ycuIGkJws--2">
          <mxGeometry relative="1" as="geometry" />
        </mxCell>
        <mxCell id="-SfgJxCNq3ycuIGkJws--1" value="Client" style="rounded=1;whiteSpace=wrap;html=1;" vertex="1" parent="1">
          <mxGeometry x="350" y="40" width="90" height="40" as="geometry" />
        </mxCell>
        <mxCell id="-SfgJxCNq3ycuIGkJws--7" value="" style="edgeStyle=orthogonalEdgeStyle;rounded=0;orthogonalLoop=1;jettySize=auto;html=1;" edge="1" parent="1" source="-SfgJxCNq3ycuIGkJws--2" target="-SfgJxCNq3ycuIGkJws--6">
          <mxGeometry relative="1" as="geometry" />
        </mxCell>
        <mxCell id="-SfgJxCNq3ycuIGkJws--24" style="edgeStyle=orthogonalEdgeStyle;rounded=0;orthogonalLoop=1;jettySize=auto;html=1;exitX=0;exitY=0.5;exitDx=0;exitDy=0;" edge="1" parent="1" source="-SfgJxCNq3ycuIGkJws--2" target="-SfgJxCNq3ycuIGkJws--23">
          <mxGeometry relative="1" as="geometry" />
        </mxCell>
        <mxCell id="-SfgJxCNq3ycuIGkJws--2" value="访问主页" style="rounded=1;whiteSpace=wrap;html=1;" vertex="1" parent="1">
          <mxGeometry x="350" y="120" width="90" height="40" as="geometry" />
        </mxCell>
        <mxCell id="-SfgJxCNq3ycuIGkJws--4" value="authMain" style="text;html=1;align=center;verticalAlign=middle;resizable=0;points=[];autosize=1;strokeColor=none;fillColor=none;" vertex="1" parent="1">
          <mxGeometry x="390" y="80" width="70" height="30" as="geometry" />
        </mxCell>
        <mxCell id="-SfgJxCNq3ycuIGkJws--9" style="edgeStyle=orthogonalEdgeStyle;rounded=0;orthogonalLoop=1;jettySize=auto;html=1;exitX=0.5;exitY=1;exitDx=0;exitDy=0;" edge="1" parent="1" source="-SfgJxCNq3ycuIGkJws--6" target="-SfgJxCNq3ycuIGkJws--8">
          <mxGeometry relative="1" as="geometry" />
        </mxCell>
        <mxCell id="-SfgJxCNq3ycuIGkJws--11" style="edgeStyle=orthogonalEdgeStyle;rounded=0;orthogonalLoop=1;jettySize=auto;html=1;exitX=1;exitY=0.5;exitDx=0;exitDy=0;entryX=0;entryY=0.5;entryDx=0;entryDy=0;" edge="1" parent="1" source="-SfgJxCNq3ycuIGkJws--6" target="-SfgJxCNq3ycuIGkJws--10">
          <mxGeometry relative="1" as="geometry" />
        </mxCell>
        <mxCell id="-SfgJxCNq3ycuIGkJws--6" value="AuthLoginInterceptor&lt;br&gt;判断用户是否登陆" style="whiteSpace=wrap;html=1;rounded=1;" vertex="1" parent="1">
          <mxGeometry x="335" y="200" width="120" height="60" as="geometry" />
        </mxCell>
        <mxCell id="-SfgJxCNq3ycuIGkJws--18" style="edgeStyle=orthogonalEdgeStyle;rounded=0;orthogonalLoop=1;jettySize=auto;html=1;exitX=0.5;exitY=1;exitDx=0;exitDy=0;entryX=0.5;entryY=0;entryDx=0;entryDy=0;" edge="1" parent="1" source="-SfgJxCNq3ycuIGkJws--8" target="-SfgJxCNq3ycuIGkJws--14">
          <mxGeometry relative="1" as="geometry" />
        </mxCell>
        <mxCell id="-SfgJxCNq3ycuIGkJws--8" value="auth_login.jsp" style="rounded=1;whiteSpace=wrap;html=1;" vertex="1" parent="1">
          <mxGeometry x="350" y="290" width="90" height="40" as="geometry" />
        </mxCell>
        <mxCell id="-SfgJxCNq3ycuIGkJws--10" value="显示用户登陆信息" style="rounded=1;whiteSpace=wrap;html=1;" vertex="1" parent="1">
          <mxGeometry x="600" y="210" width="90" height="40" as="geometry" />
        </mxCell>
        <mxCell id="-SfgJxCNq3ycuIGkJws--12" value="已登陆" style="text;html=1;align=center;verticalAlign=middle;resizable=0;points=[];autosize=1;strokeColor=none;fillColor=none;" vertex="1" parent="1">
          <mxGeometry x="490" y="205" width="60" height="30" as="geometry" />
        </mxCell>
        <mxCell id="-SfgJxCNq3ycuIGkJws--13" value="未登陆" style="text;html=1;align=center;verticalAlign=middle;resizable=0;points=[];autosize=1;strokeColor=none;fillColor=none;" vertex="1" parent="1">
          <mxGeometry x="395" y="260" width="60" height="30" as="geometry" />
        </mxCell>
        <mxCell id="-SfgJxCNq3ycuIGkJws--15" style="edgeStyle=orthogonalEdgeStyle;rounded=0;orthogonalLoop=1;jettySize=auto;html=1;exitX=1;exitY=0.5;exitDx=0;exitDy=0;entryX=0.5;entryY=1;entryDx=0;entryDy=0;" edge="1" parent="1" source="-SfgJxCNq3ycuIGkJws--14" target="-SfgJxCNq3ycuIGkJws--10">
          <mxGeometry relative="1" as="geometry" />
        </mxCell>
        <mxCell id="-SfgJxCNq3ycuIGkJws--21" style="edgeStyle=orthogonalEdgeStyle;rounded=0;orthogonalLoop=1;jettySize=auto;html=1;exitX=0;exitY=0.5;exitDx=0;exitDy=0;entryX=0.5;entryY=1;entryDx=0;entryDy=0;" edge="1" parent="1" source="-SfgJxCNq3ycuIGkJws--14" target="-SfgJxCNq3ycuIGkJws--19">
          <mxGeometry relative="1" as="geometry" />
        </mxCell>
        <mxCell id="-SfgJxCNq3ycuIGkJws--14" value="Controller" style="rounded=1;whiteSpace=wrap;html=1;" vertex="1" parent="1">
          <mxGeometry x="350" y="360" width="90" height="40" as="geometry" />
        </mxCell>
        <mxCell id="-SfgJxCNq3ycuIGkJws--17" value="用户密码正确" style="text;html=1;align=center;verticalAlign=middle;resizable=0;points=[];autosize=1;strokeColor=none;fillColor=none;" vertex="1" parent="1">
          <mxGeometry x="460" y="345" width="100" height="30" as="geometry" />
        </mxCell>
        <mxCell id="-SfgJxCNq3ycuIGkJws--20" style="edgeStyle=orthogonalEdgeStyle;rounded=0;orthogonalLoop=1;jettySize=auto;html=1;exitX=1;exitY=0.5;exitDx=0;exitDy=0;" edge="1" parent="1" source="-SfgJxCNq3ycuIGkJws--19" target="-SfgJxCNq3ycuIGkJws--8">
          <mxGeometry relative="1" as="geometry" />
        </mxCell>
        <mxCell id="-SfgJxCNq3ycuIGkJws--19" value="提示用户密码错误" style="rounded=1;whiteSpace=wrap;html=1;" vertex="1" parent="1">
          <mxGeometry x="140" y="290" width="90" height="40" as="geometry" />
        </mxCell>
        <mxCell id="-SfgJxCNq3ycuIGkJws--22" value="用户密码错误" style="text;html=1;align=center;verticalAlign=middle;resizable=0;points=[];autosize=1;strokeColor=none;fillColor=none;" vertex="1" parent="1">
          <mxGeometry x="200" y="355" width="100" height="30" as="geometry" />
        </mxCell>
        <mxCell id="-SfgJxCNq3ycuIGkJws--27" style="rounded=0;orthogonalLoop=1;jettySize=auto;html=1;exitX=0.5;exitY=1;exitDx=0;exitDy=0;entryX=0;entryY=0.5;entryDx=0;entryDy=0;" edge="1" parent="1" source="-SfgJxCNq3ycuIGkJws--23" target="-SfgJxCNq3ycuIGkJws--8">
          <mxGeometry relative="1" as="geometry" />
        </mxCell>
        <mxCell id="-SfgJxCNq3ycuIGkJws--23" value="用户退出登陆" style="rounded=1;whiteSpace=wrap;html=1;" vertex="1" parent="1">
          <mxGeometry x="140" y="120" width="90" height="40" as="geometry" />
        </mxCell>
        <mxCell id="-SfgJxCNq3ycuIGkJws--25" value="点击退出" style="text;html=1;align=center;verticalAlign=middle;resizable=0;points=[];autosize=1;strokeColor=none;fillColor=none;" vertex="1" parent="1">
          <mxGeometry x="255" y="105" width="70" height="30" as="geometry" />
        </mxCell>
      </root>
    </mxGraphModel>
  </diagram>
</mxfile>
